<svg width="1200" height="630" viewBox="0 0 1200 630" fill="none" xmlns="http://www.w3.org/2000/svg">
<g clip-path="url(#clip0_79_256)">
<path d="M1200 0H0V630H1200V0Z" fill="url(#paint0_linear_79_256)"/>
<path d="M483.301 347V427H468.691L433.887 376.648H433.301V427H416.387V347H431.23L465.762 397.312H466.465V347H483.301ZM524.072 428.172C518.005 428.172 512.757 426.883 508.33 424.305C503.929 421.701 500.531 418.081 498.135 413.445C495.739 408.784 494.541 403.38 494.541 397.234C494.541 391.036 495.739 385.62 498.135 380.984C500.531 376.323 503.929 372.703 508.33 370.125C512.757 367.521 518.005 366.219 524.072 366.219C530.14 366.219 535.374 367.521 539.775 370.125C544.202 372.703 547.614 376.323 550.01 380.984C552.406 385.62 553.604 391.036 553.604 397.234C553.604 403.38 552.406 408.784 550.01 413.445C547.614 418.081 544.202 421.701 539.775 424.305C535.374 426.883 530.14 428.172 524.072 428.172ZM524.15 415.281C526.911 415.281 529.215 414.5 531.064 412.938C532.913 411.349 534.307 409.187 535.244 406.453C536.208 403.719 536.689 400.607 536.689 397.117C536.689 393.628 536.208 390.516 535.244 387.781C534.307 385.047 532.913 382.885 531.064 381.297C529.215 379.708 526.911 378.914 524.15 378.914C521.364 378.914 519.02 379.708 517.119 381.297C515.244 382.885 513.825 385.047 512.861 387.781C511.924 390.516 511.455 393.628 511.455 397.117C511.455 400.607 511.924 403.719 512.861 406.453C513.825 409.187 515.244 411.349 517.119 412.938C519.02 414.5 521.364 415.281 524.15 415.281ZM591.533 428.172C585.465 428.172 580.218 426.883 575.791 424.305C571.39 421.701 567.992 418.081 565.596 413.445C563.2 408.784 562.002 403.38 562.002 397.234C562.002 391.036 563.2 385.62 565.596 380.984C567.992 376.323 571.39 372.703 575.791 370.125C580.218 367.521 585.465 366.219 591.533 366.219C597.601 366.219 602.835 367.521 607.236 370.125C611.663 372.703 615.075 376.323 617.471 380.984C619.867 385.62 621.064 391.036 621.064 397.234C621.064 403.38 619.867 408.784 617.471 413.445C615.075 418.081 611.663 421.701 607.236 424.305C602.835 426.883 597.601 428.172 591.533 428.172ZM591.611 415.281C594.372 415.281 596.676 414.5 598.525 412.938C600.374 411.349 601.768 409.187 602.705 406.453C603.669 403.719 604.15 400.607 604.15 397.117C604.15 393.628 603.669 390.516 602.705 387.781C601.768 385.047 600.374 382.885 598.525 381.297C596.676 379.708 594.372 378.914 591.611 378.914C588.825 378.914 586.481 379.708 584.58 381.297C582.705 382.885 581.286 385.047 580.322 387.781C579.385 390.516 578.916 393.628 578.916 397.117C578.916 400.607 579.385 403.719 580.322 406.453C581.286 409.187 582.705 411.349 584.58 412.938C586.481 414.5 588.825 415.281 591.611 415.281ZM658.916 450.75C653.525 450.75 648.903 450.008 645.049 448.523C641.221 447.065 638.174 445.073 635.908 442.547C633.643 440.021 632.171 437.182 631.494 434.031L646.885 431.961C647.354 433.159 648.096 434.279 649.111 435.32C650.127 436.362 651.468 437.195 653.135 437.82C654.827 438.471 656.885 438.797 659.307 438.797C662.926 438.797 665.908 437.911 668.252 436.141C670.622 434.396 671.807 431.466 671.807 427.352V416.375H671.104C670.374 418.042 669.281 419.617 667.822 421.102C666.364 422.586 664.489 423.797 662.197 424.734C659.906 425.672 657.171 426.141 653.994 426.141C649.489 426.141 645.387 425.099 641.689 423.016C638.018 420.906 635.088 417.69 632.9 413.367C630.739 409.018 629.658 403.523 629.658 396.883C629.658 390.086 630.765 384.409 632.979 379.852C635.192 375.294 638.135 371.883 641.807 369.617C645.505 367.352 649.554 366.219 653.955 366.219C657.314 366.219 660.127 366.792 662.393 367.938C664.658 369.057 666.481 370.464 667.861 372.156C669.268 373.823 670.348 375.464 671.104 377.078H671.729V367H688.252V427.586C688.252 432.69 687.002 436.961 684.502 440.398C682.002 443.836 678.538 446.414 674.111 448.133C669.71 449.878 664.645 450.75 658.916 450.75ZM659.268 413.641C661.95 413.641 664.215 412.977 666.064 411.648C667.939 410.294 669.372 408.367 670.361 405.867C671.377 403.341 671.885 400.32 671.885 396.805C671.885 393.289 671.39 390.242 670.4 387.664C669.411 385.06 667.979 383.042 666.104 381.609C664.229 380.177 661.95 379.461 659.268 379.461C656.533 379.461 654.229 380.203 652.354 381.687C650.479 383.146 649.059 385.177 648.096 387.781C647.132 390.385 646.65 393.393 646.65 396.805C646.65 400.268 647.132 403.263 648.096 405.789C649.085 408.289 650.505 410.229 652.354 411.609C654.229 412.964 656.533 413.641 659.268 413.641ZM718.135 347V427H701.494V347H718.135ZM758.809 428.172C752.637 428.172 747.324 426.922 742.871 424.422C738.444 421.896 735.033 418.328 732.637 413.719C730.241 409.083 729.043 403.602 729.043 397.273C729.043 391.102 730.241 385.685 732.637 381.023C735.033 376.362 738.405 372.729 742.754 370.125C747.129 367.521 752.259 366.219 758.145 366.219C762.103 366.219 765.788 366.857 769.199 368.133C772.637 369.383 775.632 371.271 778.184 373.797C780.762 376.323 782.767 379.5 784.199 383.328C785.632 387.13 786.348 391.583 786.348 396.687V401.258H735.684V390.945H770.684C770.684 388.549 770.163 386.427 769.121 384.578C768.079 382.729 766.634 381.284 764.785 380.242C762.962 379.174 760.84 378.641 758.418 378.641C755.892 378.641 753.652 379.227 751.699 380.398C749.772 381.544 748.262 383.094 747.168 385.047C746.074 386.974 745.514 389.122 745.488 391.492V401.297C745.488 404.266 746.035 406.831 747.129 408.992C748.249 411.154 749.824 412.82 751.855 413.992C753.887 415.164 756.296 415.75 759.082 415.75C760.931 415.75 762.624 415.49 764.16 414.969C765.697 414.448 767.012 413.667 768.105 412.625C769.199 411.583 770.033 410.307 770.605 408.797L785.996 409.812C785.215 413.51 783.613 416.74 781.191 419.5C778.796 422.234 775.697 424.37 771.895 425.906C768.118 427.417 763.757 428.172 758.809 428.172Z" fill="white"/>
<path d="M338.513 474.818C338.403 473.883 337.953 473.156 337.165 472.639C336.378 472.122 335.411 471.864 334.266 471.864C333.429 471.864 332.697 471.999 332.069 472.27C331.447 472.541 330.961 472.913 330.61 473.387C330.265 473.861 330.093 474.4 330.093 475.003C330.093 475.508 330.213 475.942 330.453 476.305C330.699 476.662 331.013 476.96 331.395 477.2C331.777 477.434 332.177 477.628 332.595 477.782C333.014 477.93 333.398 478.05 333.749 478.142L335.67 478.659C336.162 478.788 336.71 478.967 337.313 479.195C337.923 479.422 338.504 479.733 339.058 480.127C339.618 480.515 340.08 481.013 340.443 481.623C340.806 482.232 340.988 482.98 340.988 483.866C340.988 484.888 340.72 485.812 340.185 486.636C339.655 487.461 338.88 488.117 337.858 488.603C336.842 489.089 335.608 489.332 334.156 489.332C332.801 489.332 331.629 489.114 330.638 488.677C329.653 488.24 328.877 487.63 328.311 486.849C327.751 486.067 327.434 485.159 327.36 484.125H329.724C329.785 484.839 330.025 485.43 330.444 485.898C330.869 486.359 331.404 486.704 332.05 486.932C332.703 487.153 333.405 487.264 334.156 487.264C335.03 487.264 335.814 487.123 336.51 486.839C337.205 486.55 337.756 486.15 338.163 485.639C338.569 485.122 338.772 484.519 338.772 483.83C338.772 483.202 338.597 482.691 338.246 482.297C337.895 481.903 337.433 481.583 336.861 481.337C336.288 481.09 335.67 480.875 335.005 480.69L332.678 480.026C331.201 479.601 330.031 478.995 329.17 478.207C328.308 477.419 327.877 476.388 327.877 475.114C327.877 474.055 328.163 473.132 328.736 472.344C329.314 471.55 330.09 470.934 331.062 470.497C332.041 470.054 333.134 469.832 334.34 469.832C335.559 469.832 336.642 470.051 337.59 470.488C338.538 470.919 339.289 471.51 339.843 472.261C340.403 473.012 340.699 473.864 340.729 474.818H338.513ZM344.457 489V474.818H346.636V489H344.457ZM345.565 472.455C345.14 472.455 344.774 472.31 344.466 472.021C344.165 471.731 344.014 471.384 344.014 470.977C344.014 470.571 344.165 470.223 344.466 469.934C344.774 469.645 345.14 469.5 345.565 469.5C345.99 469.5 346.353 469.645 346.655 469.934C346.962 470.223 347.116 470.571 347.116 470.977C347.116 471.384 346.962 471.731 346.655 472.021C346.353 472.31 345.99 472.455 345.565 472.455ZM350.627 489V474.818H352.732V477.034H352.917C353.212 476.277 353.689 475.689 354.348 475.271C355.007 474.846 355.798 474.634 356.721 474.634C357.656 474.634 358.435 474.846 359.057 475.271C359.685 475.689 360.174 476.277 360.525 477.034H360.673C361.036 476.302 361.58 475.72 362.307 475.289C363.033 474.852 363.904 474.634 364.92 474.634C366.188 474.634 367.225 475.031 368.031 475.825C368.838 476.612 369.241 477.84 369.241 479.509V489H367.062V479.509C367.062 478.462 366.776 477.714 366.203 477.265C365.631 476.816 364.957 476.591 364.181 476.591C363.184 476.591 362.411 476.893 361.864 477.496C361.316 478.093 361.042 478.85 361.042 479.767V489H358.826V479.287C358.826 478.481 358.564 477.831 358.041 477.339C357.518 476.84 356.844 476.591 356.019 476.591C355.453 476.591 354.924 476.742 354.431 477.043C353.945 477.345 353.551 477.763 353.249 478.299C352.954 478.828 352.806 479.441 352.806 480.136V489H350.627ZM373.225 494.318V474.818H375.33V477.071H375.588C375.748 476.825 375.97 476.511 376.253 476.129C376.542 475.741 376.955 475.397 377.49 475.095C378.032 474.787 378.765 474.634 379.688 474.634C380.882 474.634 381.935 474.932 382.846 475.529C383.757 476.126 384.467 476.973 384.978 478.068C385.489 479.164 385.745 480.456 385.745 481.946C385.745 483.448 385.489 484.75 384.978 485.852C384.467 486.947 383.76 487.797 382.855 488.4C381.95 488.997 380.907 489.295 379.725 489.295C378.814 489.295 378.084 489.145 377.537 488.843C376.989 488.535 376.567 488.187 376.272 487.8C375.976 487.406 375.748 487.08 375.588 486.821H375.404V494.318H373.225ZM375.367 481.909C375.367 482.98 375.524 483.925 375.838 484.744C376.152 485.556 376.61 486.193 377.213 486.655C377.817 487.11 378.555 487.338 379.429 487.338C380.34 487.338 381.1 487.098 381.71 486.618C382.325 486.132 382.787 485.479 383.095 484.661C383.409 483.836 383.566 482.919 383.566 481.909C383.566 480.912 383.412 480.013 383.104 479.213C382.802 478.407 382.344 477.77 381.728 477.302C381.119 476.828 380.353 476.591 379.429 476.591C378.543 476.591 377.798 476.816 377.195 477.265C376.592 477.708 376.136 478.33 375.828 479.13C375.521 479.924 375.367 480.85 375.367 481.909ZM391.248 470.091V489H389.069V470.091H391.248ZM396.642 494.318C396.273 494.318 395.943 494.287 395.654 494.226C395.365 494.17 395.165 494.115 395.054 494.06L395.608 492.139C396.137 492.275 396.605 492.324 397.011 492.287C397.417 492.25 397.778 492.068 398.091 491.742C398.412 491.422 398.704 490.902 398.969 490.182L399.375 489.074L394.131 474.818H396.494L400.409 486.119H400.557L404.471 474.818H406.835L400.815 491.068C400.544 491.801 400.209 492.407 399.809 492.887C399.409 493.373 398.944 493.733 398.415 493.967C397.891 494.201 397.3 494.318 396.642 494.318ZM423.339 474.818V476.665H415.694V474.818H423.339ZM417.984 489V472.861C417.984 472.048 418.175 471.371 418.556 470.83C418.938 470.288 419.433 469.882 420.043 469.611C420.652 469.34 421.295 469.205 421.972 469.205C422.508 469.205 422.945 469.248 423.284 469.334C423.622 469.42 423.874 469.5 424.041 469.574L423.413 471.457C423.302 471.42 423.148 471.374 422.951 471.319C422.76 471.263 422.508 471.236 422.194 471.236C421.474 471.236 420.954 471.417 420.634 471.781C420.32 472.144 420.163 472.676 420.163 473.378V489H417.984ZM426.393 489V474.818H428.572V489H426.393ZM427.501 472.455C427.076 472.455 426.71 472.31 426.402 472.021C426.1 471.731 425.95 471.384 425.95 470.977C425.95 470.571 426.1 470.223 426.402 469.934C426.71 469.645 427.076 469.5 427.501 469.5C427.925 469.5 428.289 469.645 428.59 469.934C428.898 470.223 429.052 470.571 429.052 470.977C429.052 471.384 428.898 471.731 428.59 472.021C428.289 472.31 427.925 472.455 427.501 472.455ZM434.742 480.469V489H432.563V474.818H434.668V477.034H434.852C435.185 476.314 435.69 475.735 436.367 475.298C437.044 474.855 437.918 474.634 438.989 474.634C439.949 474.634 440.789 474.83 441.509 475.224C442.23 475.612 442.79 476.203 443.19 476.997C443.59 477.785 443.79 478.782 443.79 479.989V489H441.611V480.136C441.611 479.022 441.322 478.154 440.743 477.533C440.164 476.905 439.37 476.591 438.361 476.591C437.665 476.591 437.044 476.742 436.496 477.043C435.954 477.345 435.526 477.785 435.213 478.364C434.899 478.942 434.742 479.644 434.742 480.469ZM453.127 489.295C451.945 489.295 450.902 488.997 449.997 488.4C449.092 487.797 448.384 486.947 447.873 485.852C447.362 484.75 447.107 483.448 447.107 481.946C447.107 480.456 447.362 479.164 447.873 478.068C448.384 476.973 449.095 476.126 450.006 475.529C450.917 474.932 451.97 474.634 453.164 474.634C454.087 474.634 454.816 474.787 455.352 475.095C455.894 475.397 456.306 475.741 456.589 476.129C456.878 476.511 457.103 476.825 457.263 477.071H457.448V470.091H459.627V489H457.522V486.821H457.263C457.103 487.08 456.875 487.406 456.58 487.8C456.284 488.187 455.863 488.535 455.315 488.843C454.767 489.145 454.038 489.295 453.127 489.295ZM453.422 487.338C454.296 487.338 455.035 487.11 455.638 486.655C456.241 486.193 456.7 485.556 457.014 484.744C457.328 483.925 457.485 482.98 457.485 481.909C457.485 480.85 457.331 479.924 457.023 479.13C456.715 478.33 456.26 477.708 455.657 477.265C455.053 476.816 454.309 476.591 453.422 476.591C452.499 476.591 451.73 476.828 451.114 477.302C450.505 477.77 450.046 478.407 449.738 479.213C449.437 480.013 449.286 480.912 449.286 481.909C449.286 482.919 449.44 483.836 449.748 484.661C450.061 485.479 450.523 486.132 451.132 486.618C451.748 487.098 452.511 487.338 453.422 487.338ZM486.522 470.091V489H484.306L474.002 474.153H473.818V489H471.528V470.091H473.744L484.085 484.974H484.27V470.091H486.522ZM490.809 489V474.818H492.988V489H490.809ZM491.917 472.455C491.492 472.455 491.126 472.31 490.818 472.021C490.516 471.731 490.366 471.384 490.366 470.977C490.366 470.571 490.516 470.223 490.818 469.934C491.126 469.645 491.492 469.5 491.917 469.5C492.341 469.5 492.705 469.645 493.006 469.934C493.314 470.223 493.468 470.571 493.468 470.977C493.468 471.384 493.314 471.731 493.006 472.021C492.705 472.31 492.341 472.455 491.917 472.455ZM498.604 474.818L502.001 480.616L505.399 474.818H507.911L503.331 481.909L507.911 489H505.399L502.001 483.497L498.604 489H496.092L500.598 481.909L496.092 474.818H498.604ZM519.403 489H517.003L523.946 470.091H526.309L533.253 489H530.852L525.202 473.082H525.054L519.403 489ZM520.29 481.614H529.966V483.645H520.29V481.614ZM536.198 489V470.091H542.587C544.071 470.091 545.283 470.359 546.225 470.894C547.173 471.424 547.875 472.141 548.33 473.045C548.786 473.95 549.013 474.96 549.013 476.074C549.013 477.188 548.786 478.201 548.33 479.112C547.881 480.022 547.185 480.749 546.243 481.29C545.302 481.826 544.095 482.094 542.624 482.094H538.045V480.062H542.55C543.566 480.062 544.381 479.887 544.997 479.536C545.613 479.185 546.059 478.711 546.336 478.114C546.619 477.511 546.76 476.831 546.76 476.074C546.76 475.317 546.619 474.64 546.336 474.043C546.059 473.446 545.609 472.978 544.988 472.639C544.366 472.295 543.541 472.122 542.513 472.122H538.488V489H536.198ZM554.992 470.091V489H552.702V470.091H554.992ZM566.6 489V474.818H568.705V476.96H568.853C569.111 476.259 569.579 475.689 570.256 475.252C570.933 474.815 571.696 474.597 572.546 474.597C572.706 474.597 572.906 474.6 573.146 474.606C573.386 474.612 573.568 474.621 573.691 474.634V476.849C573.617 476.831 573.448 476.803 573.183 476.766C572.924 476.723 572.65 476.702 572.361 476.702C571.672 476.702 571.056 476.846 570.515 477.136C569.979 477.419 569.554 477.813 569.24 478.317C568.933 478.816 568.779 479.385 568.779 480.026V489H566.6ZM581.788 489.295C580.422 489.295 579.243 488.994 578.252 488.391C577.267 487.781 576.507 486.932 575.971 485.842C575.442 484.747 575.177 483.473 575.177 482.02C575.177 480.567 575.442 479.287 575.971 478.179C576.507 477.065 577.252 476.197 578.206 475.575C579.166 474.947 580.286 474.634 581.566 474.634C582.305 474.634 583.034 474.757 583.755 475.003C584.475 475.249 585.13 475.649 585.721 476.203C586.312 476.751 586.783 477.477 587.134 478.382C587.485 479.287 587.66 480.401 587.66 481.724V482.648H576.728V480.764H585.444C585.444 479.964 585.284 479.25 584.964 478.622C584.65 477.994 584.201 477.499 583.616 477.136C583.038 476.772 582.354 476.591 581.566 476.591C580.699 476.591 579.948 476.806 579.314 477.237C578.686 477.662 578.203 478.216 577.864 478.899C577.525 479.582 577.356 480.315 577.356 481.097V482.352C577.356 483.423 577.541 484.331 577.91 485.076C578.286 485.815 578.806 486.378 579.471 486.766C580.135 487.147 580.908 487.338 581.788 487.338C582.36 487.338 582.877 487.258 583.339 487.098C583.807 486.932 584.21 486.686 584.549 486.359C584.887 486.027 585.149 485.615 585.333 485.122L587.439 485.713C587.217 486.427 586.845 487.055 586.321 487.597C585.798 488.132 585.152 488.551 584.382 488.852C583.613 489.148 582.748 489.295 581.788 489.295ZM597.29 474.818V476.665H589.645V474.818H597.29ZM591.935 489V472.861C591.935 472.048 592.126 471.371 592.507 470.83C592.889 470.288 593.385 469.882 593.994 469.611C594.603 469.34 595.247 469.205 595.924 469.205C596.459 469.205 596.896 469.248 597.235 469.334C597.573 469.42 597.826 469.5 597.992 469.574L597.364 471.457C597.253 471.42 597.099 471.374 596.902 471.319C596.712 471.263 596.459 471.236 596.145 471.236C595.425 471.236 594.905 471.417 594.585 471.781C594.271 472.144 594.114 472.676 594.114 473.378V489H591.935ZM605.706 489.295C604.339 489.295 603.161 488.994 602.17 488.391C601.185 487.781 600.425 486.932 599.889 485.842C599.36 484.747 599.095 483.473 599.095 482.02C599.095 480.567 599.36 479.287 599.889 478.179C600.425 477.065 601.17 476.197 602.124 475.575C603.084 474.947 604.204 474.634 605.484 474.634C606.223 474.634 606.952 474.757 607.673 475.003C608.393 475.249 609.048 475.649 609.639 476.203C610.23 476.751 610.701 477.477 611.052 478.382C611.403 479.287 611.578 480.401 611.578 481.724V482.648H600.646V480.764H609.362C609.362 479.964 609.202 479.25 608.882 478.622C608.568 477.994 608.119 477.499 607.534 477.136C606.955 476.772 606.272 476.591 605.484 476.591C604.616 476.591 603.866 476.806 603.232 477.237C602.604 477.662 602.121 478.216 601.782 478.899C601.443 479.582 601.274 480.315 601.274 481.097V482.352C601.274 483.423 601.459 484.331 601.828 485.076C602.204 485.815 602.724 486.378 603.388 486.766C604.053 487.147 604.826 487.338 605.706 487.338C606.278 487.338 606.795 487.258 607.257 487.098C607.725 486.932 608.128 486.686 608.467 486.359C608.805 486.027 609.067 485.615 609.251 485.122L611.357 485.713C611.135 486.427 610.763 487.055 610.239 487.597C609.716 488.132 609.07 488.551 608.3 488.852C607.531 489.148 606.666 489.295 605.706 489.295ZM614.893 489V474.818H616.998V476.96H617.146C617.404 476.259 617.872 475.689 618.549 475.252C619.226 474.815 619.989 474.597 620.839 474.597C620.999 474.597 621.199 474.6 621.439 474.606C621.679 474.612 621.861 474.621 621.984 474.634V476.849C621.91 476.831 621.741 476.803 621.476 476.766C621.217 476.723 620.943 476.702 620.654 476.702C619.965 476.702 619.349 476.846 618.808 477.136C618.272 477.419 617.847 477.813 617.533 478.317C617.226 478.816 617.072 479.385 617.072 480.026V489H614.893ZM630.081 489.295C628.714 489.295 627.536 488.994 626.545 488.391C625.56 487.781 624.8 486.932 624.264 485.842C623.735 484.747 623.47 483.473 623.47 482.02C623.47 480.567 623.735 479.287 624.264 478.179C624.8 477.065 625.545 476.197 626.499 475.575C627.459 474.947 628.579 474.634 629.859 474.634C630.598 474.634 631.327 474.757 632.048 475.003C632.768 475.249 633.423 475.649 634.014 476.203C634.605 476.751 635.076 477.477 635.427 478.382C635.778 479.287 635.953 480.401 635.953 481.724V482.648H625.021V480.764H633.737C633.737 479.964 633.577 479.25 633.257 478.622C632.943 477.994 632.494 477.499 631.909 477.136C631.33 476.772 630.647 476.591 629.859 476.591C628.991 476.591 628.241 476.806 627.607 477.237C626.979 477.662 626.496 478.216 626.157 478.899C625.818 479.582 625.649 480.315 625.649 481.097V482.352C625.649 483.423 625.834 484.331 626.203 485.076C626.579 485.815 627.099 486.378 627.763 486.766C628.428 487.147 629.201 487.338 630.081 487.338C630.653 487.338 631.17 487.258 631.632 487.098C632.1 486.932 632.503 486.686 632.842 486.359C633.18 486.027 633.442 485.615 633.626 485.122L635.732 485.713C635.51 486.427 635.138 487.055 634.614 487.597C634.091 488.132 633.445 488.551 632.675 488.852C631.906 489.148 631.041 489.295 630.081 489.295ZM641.447 480.469V489H639.268V474.818H641.373V477.034H641.558C641.89 476.314 642.395 475.735 643.072 475.298C643.749 474.855 644.623 474.634 645.694 474.634C646.654 474.634 647.494 474.83 648.214 475.224C648.935 475.612 649.495 476.203 649.895 476.997C650.295 477.785 650.495 478.782 650.495 479.989V489H648.316V480.136C648.316 479.022 648.027 478.154 647.448 477.533C646.87 476.905 646.076 476.591 645.066 476.591C644.371 476.591 643.749 476.742 643.201 477.043C642.659 477.345 642.232 477.785 641.918 478.364C641.604 478.942 641.447 479.644 641.447 480.469ZM660.238 489.295C658.909 489.295 657.764 488.982 656.803 488.354C655.843 487.726 655.105 486.861 654.588 485.759C654.07 484.657 653.812 483.399 653.812 481.983C653.812 480.543 654.077 479.272 654.606 478.17C655.142 477.062 655.886 476.197 656.84 475.575C657.801 474.947 658.921 474.634 660.201 474.634C661.198 474.634 662.097 474.818 662.897 475.188C663.697 475.557 664.353 476.074 664.864 476.739C665.375 477.403 665.692 478.179 665.815 479.065H663.636C663.47 478.419 663.1 477.847 662.528 477.348C661.962 476.843 661.198 476.591 660.238 476.591C659.389 476.591 658.644 476.812 658.004 477.256C657.37 477.693 656.874 478.311 656.517 479.112C656.166 479.906 655.991 480.838 655.991 481.909C655.991 483.005 656.163 483.959 656.508 484.771C656.859 485.584 657.351 486.215 657.985 486.664C658.625 487.113 659.376 487.338 660.238 487.338C660.804 487.338 661.318 487.24 661.78 487.043C662.242 486.846 662.633 486.562 662.953 486.193C663.273 485.824 663.5 485.381 663.636 484.864H665.815C665.692 485.701 665.387 486.455 664.901 487.126C664.421 487.79 663.784 488.32 662.99 488.714C662.202 489.102 661.285 489.295 660.238 489.295ZM674.946 489.295C673.58 489.295 672.401 488.994 671.41 488.391C670.425 487.781 669.665 486.932 669.129 485.842C668.6 484.747 668.335 483.473 668.335 482.02C668.335 480.567 668.6 479.287 669.129 478.179C669.665 477.065 670.41 476.197 671.364 475.575C672.324 474.947 673.444 474.634 674.725 474.634C675.463 474.634 676.193 474.757 676.913 475.003C677.633 475.249 678.289 475.649 678.879 476.203C679.47 476.751 679.941 477.477 680.292 478.382C680.643 479.287 680.818 480.401 680.818 481.724V482.648H669.887V480.764H678.602C678.602 479.964 678.442 479.25 678.122 478.622C677.808 477.994 677.359 477.499 676.774 477.136C676.196 476.772 675.512 476.591 674.725 476.591C673.857 476.591 673.106 476.806 672.472 477.237C671.844 477.662 671.361 478.216 671.022 478.899C670.684 479.582 670.514 480.315 670.514 481.097V482.352C670.514 483.423 670.699 484.331 671.068 485.076C671.444 485.815 671.964 486.378 672.629 486.766C673.294 487.147 674.066 487.338 674.946 487.338C675.519 487.338 676.036 487.258 676.497 487.098C676.965 486.932 677.368 486.686 677.707 486.359C678.045 486.027 678.307 485.615 678.492 485.122L680.597 485.713C680.375 486.427 680.003 487.055 679.48 487.597C678.956 488.132 678.31 488.551 677.541 488.852C676.771 489.148 675.906 489.295 674.946 489.295ZM696.801 489.295C695.619 489.295 694.575 488.997 693.671 488.4C692.766 487.797 692.058 486.947 691.547 485.852C691.036 484.75 690.781 483.448 690.781 481.946C690.781 480.456 691.036 479.164 691.547 478.068C692.058 476.973 692.769 476.126 693.68 475.529C694.591 474.932 695.643 474.634 696.838 474.634C697.761 474.634 698.49 474.787 699.026 475.095C699.567 475.397 699.98 475.741 700.263 476.129C700.552 476.511 700.777 476.825 700.937 477.071H701.122V470.091H703.301V489H701.195V486.821H700.937C700.777 487.08 700.549 487.406 700.254 487.8C699.958 488.187 699.537 488.535 698.989 488.843C698.441 489.145 697.712 489.295 696.801 489.295ZM697.096 487.338C697.97 487.338 698.709 487.11 699.312 486.655C699.915 486.193 700.374 485.556 700.688 484.744C701.002 483.925 701.159 482.98 701.159 481.909C701.159 480.85 701.005 479.924 700.697 479.13C700.389 478.33 699.934 477.708 699.33 477.265C698.727 476.816 697.982 476.591 697.096 476.591C696.173 476.591 695.403 476.828 694.788 477.302C694.178 477.77 693.72 478.407 693.412 479.213C693.11 480.013 692.96 480.912 692.96 481.909C692.96 482.919 693.114 483.836 693.421 484.661C693.735 485.479 694.197 486.132 694.806 486.618C695.422 487.098 696.185 487.338 697.096 487.338ZM713.355 489.295C712.075 489.295 710.952 488.991 709.985 488.381C709.025 487.772 708.274 486.92 707.732 485.824C707.197 484.728 706.929 483.448 706.929 481.983C706.929 480.506 707.197 479.216 707.732 478.114C708.274 477.013 709.025 476.157 709.985 475.548C710.952 474.938 712.075 474.634 713.355 474.634C714.636 474.634 715.756 474.938 716.716 475.548C717.682 476.157 718.433 477.013 718.969 478.114C719.511 479.216 719.781 480.506 719.781 481.983C719.781 483.448 719.511 484.728 718.969 485.824C718.433 486.92 717.682 487.772 716.716 488.381C715.756 488.991 714.636 489.295 713.355 489.295ZM713.355 487.338C714.328 487.338 715.128 487.089 715.756 486.59C716.384 486.092 716.848 485.436 717.15 484.624C717.452 483.811 717.602 482.931 717.602 481.983C717.602 481.035 717.452 480.152 717.15 479.333C716.848 478.514 716.384 477.853 715.756 477.348C715.128 476.843 714.328 476.591 713.355 476.591C712.383 476.591 711.583 476.843 710.955 477.348C710.327 477.853 709.862 478.514 709.561 479.333C709.259 480.152 709.108 481.035 709.108 481.983C709.108 482.931 709.259 483.811 709.561 484.624C709.862 485.436 710.327 486.092 710.955 486.59C711.583 487.089 712.383 487.338 713.355 487.338ZM728.869 489.295C727.539 489.295 726.395 488.982 725.434 488.354C724.474 487.726 723.735 486.861 723.218 485.759C722.701 484.657 722.443 483.399 722.443 481.983C722.443 480.543 722.708 479.272 723.237 478.17C723.772 477.062 724.517 476.197 725.471 475.575C726.431 474.947 727.552 474.634 728.832 474.634C729.829 474.634 730.728 474.818 731.528 475.188C732.328 475.557 732.984 476.074 733.495 476.739C734.006 477.403 734.323 478.179 734.446 479.065H732.267C732.1 478.419 731.731 477.847 731.159 477.348C730.592 476.843 729.829 476.591 728.869 476.591C728.02 476.591 727.275 476.812 726.635 477.256C726.001 477.693 725.505 478.311 725.148 479.112C724.797 479.906 724.622 480.838 724.622 481.909C724.622 483.005 724.794 483.959 725.139 484.771C725.49 485.584 725.982 486.215 726.616 486.664C727.256 487.113 728.007 487.338 728.869 487.338C729.435 487.338 729.949 487.24 730.411 487.043C730.873 486.846 731.263 486.562 731.583 486.193C731.904 485.824 732.131 485.381 732.267 484.864H734.446C734.323 485.701 734.018 486.455 733.532 487.126C733.051 487.79 732.414 488.32 731.62 488.714C730.833 489.102 729.915 489.295 728.869 489.295ZM746.569 483.202V474.818H748.748V489H746.569V486.599H746.421C746.088 487.32 745.571 487.932 744.87 488.437C744.168 488.935 743.282 489.185 742.211 489.185C741.324 489.185 740.536 488.991 739.847 488.603C739.158 488.209 738.616 487.618 738.222 486.83C737.828 486.036 737.631 485.036 737.631 483.83V474.818H739.81V483.682C739.81 484.716 740.099 485.541 740.678 486.156C741.263 486.772 742.007 487.08 742.912 487.08C743.454 487.08 744.005 486.941 744.565 486.664C745.131 486.387 745.605 485.962 745.987 485.39C746.375 484.817 746.569 484.088 746.569 483.202ZM752.738 489V474.818H754.844V477.034H755.028C755.324 476.277 755.801 475.689 756.459 475.271C757.118 474.846 757.909 474.634 758.832 474.634C759.768 474.634 760.546 474.846 761.168 475.271C761.796 475.689 762.285 476.277 762.636 477.034H762.784C763.147 476.302 763.692 475.72 764.418 475.289C765.144 474.852 766.015 474.634 767.031 474.634C768.299 474.634 769.336 475.031 770.143 475.825C770.949 476.612 771.352 477.84 771.352 479.509V489H769.173V479.509C769.173 478.462 768.887 477.714 768.314 477.265C767.742 476.816 767.068 476.591 766.292 476.591C765.295 476.591 764.523 476.893 763.975 477.496C763.427 478.093 763.153 478.85 763.153 479.767V489H760.937V479.287C760.937 478.481 760.676 477.831 760.153 477.339C759.629 476.84 758.955 476.591 758.131 476.591C757.564 476.591 757.035 476.742 756.542 477.043C756.056 477.345 755.662 477.763 755.361 478.299C755.065 478.828 754.917 479.441 754.917 480.136V489H752.738ZM781.282 489.295C779.916 489.295 778.737 488.994 777.746 488.391C776.761 487.781 776.001 486.932 775.465 485.842C774.936 484.747 774.671 483.473 774.671 482.02C774.671 480.567 774.936 479.287 775.465 478.179C776.001 477.065 776.746 476.197 777.7 475.575C778.66 474.947 779.78 474.634 781.061 474.634C781.799 474.634 782.529 474.757 783.249 475.003C783.969 475.249 784.624 475.649 785.215 476.203C785.806 476.751 786.277 477.477 786.628 478.382C786.979 479.287 787.154 480.401 787.154 481.724V482.648H776.222V480.764H784.938C784.938 479.964 784.778 479.25 784.458 478.622C784.144 477.994 783.695 477.499 783.11 477.136C782.532 476.772 781.848 476.591 781.061 476.591C780.193 476.591 779.442 476.806 778.808 477.237C778.18 477.662 777.697 478.216 777.358 478.899C777.02 479.582 776.85 480.315 776.85 481.097V482.352C776.85 483.423 777.035 484.331 777.404 485.076C777.78 485.815 778.3 486.378 778.965 486.766C779.629 487.147 780.402 487.338 781.282 487.338C781.855 487.338 782.372 487.258 782.833 487.098C783.301 486.932 783.704 486.686 784.043 486.359C784.381 486.027 784.643 485.615 784.828 485.122L786.933 485.713C786.711 486.427 786.339 487.055 785.816 487.597C785.292 488.132 784.646 488.551 783.877 488.852C783.107 489.148 782.242 489.295 781.282 489.295ZM792.648 480.469V489H790.469V474.818H792.574V477.034H792.759C793.091 476.314 793.596 475.735 794.273 475.298C794.95 474.855 795.824 474.634 796.895 474.634C797.855 474.634 798.695 474.83 799.416 475.224C800.136 475.612 800.696 476.203 801.096 476.997C801.496 477.785 801.696 478.782 801.696 479.989V489H799.517V480.136C799.517 479.022 799.228 478.154 798.649 477.533C798.071 476.905 797.277 476.591 796.267 476.591C795.572 476.591 794.95 476.742 794.402 477.043C793.86 477.345 793.433 477.785 793.119 478.364C792.805 478.942 792.648 479.644 792.648 480.469ZM811.846 474.818V476.665H804.496V474.818H811.846ZM806.638 471.42H808.817V484.938C808.817 485.553 808.906 486.015 809.085 486.322C809.27 486.624 809.503 486.827 809.787 486.932C810.076 487.03 810.381 487.08 810.701 487.08C810.941 487.08 811.138 487.067 811.292 487.043C811.445 487.012 811.569 486.987 811.661 486.969L812.104 488.926C811.956 488.982 811.75 489.037 811.485 489.092C811.221 489.154 810.885 489.185 810.479 489.185C809.864 489.185 809.26 489.052 808.669 488.788C808.085 488.523 807.598 488.12 807.211 487.578C806.829 487.036 806.638 486.353 806.638 485.528V471.42ZM819.297 489.332C818.398 489.332 817.582 489.163 816.85 488.825C816.117 488.48 815.536 487.984 815.105 487.338C814.674 486.686 814.458 485.898 814.458 484.974C814.458 484.162 814.618 483.503 814.939 482.999C815.259 482.488 815.686 482.088 816.222 481.798C816.757 481.509 817.348 481.294 817.995 481.152C818.647 481.004 819.303 480.887 819.961 480.801C820.823 480.69 821.522 480.607 822.057 480.552C822.599 480.49 822.993 480.389 823.239 480.247C823.491 480.106 823.618 479.859 823.618 479.509V479.435C823.618 478.524 823.368 477.816 822.87 477.311C822.377 476.806 821.629 476.554 820.626 476.554C819.586 476.554 818.77 476.782 818.179 477.237C817.588 477.693 817.173 478.179 816.933 478.696L814.865 477.957C815.234 477.096 815.726 476.425 816.342 475.945C816.964 475.458 817.641 475.12 818.373 474.929C819.112 474.732 819.838 474.634 820.552 474.634C821.008 474.634 821.531 474.689 822.122 474.8C822.719 474.904 823.294 475.123 823.848 475.455C824.408 475.788 824.873 476.289 825.243 476.96C825.612 477.631 825.797 478.53 825.797 479.656V489H823.618V487.08H823.507C823.359 487.387 823.113 487.717 822.768 488.067C822.423 488.418 821.965 488.717 821.392 488.963C820.82 489.209 820.121 489.332 819.297 489.332ZM819.629 487.375C820.491 487.375 821.217 487.206 821.808 486.867C822.405 486.529 822.854 486.092 823.156 485.556C823.464 485.021 823.618 484.457 823.618 483.866V481.872C823.525 481.983 823.322 482.085 823.008 482.177C822.7 482.263 822.343 482.34 821.937 482.408C821.537 482.469 821.146 482.525 820.765 482.574C820.389 482.617 820.084 482.654 819.85 482.685C819.284 482.759 818.755 482.879 818.262 483.045C817.776 483.205 817.382 483.448 817.081 483.774C816.785 484.094 816.637 484.531 816.637 485.085C816.637 485.842 816.917 486.415 817.478 486.803C818.044 487.184 818.761 487.375 819.629 487.375ZM835.941 474.818V476.665H828.592V474.818H835.941ZM830.734 471.42H832.913V484.938C832.913 485.553 833.002 486.015 833.181 486.322C833.365 486.624 833.599 486.827 833.882 486.932C834.172 487.03 834.476 487.08 834.796 487.08C835.036 487.08 835.233 487.067 835.387 487.043C835.541 487.012 835.664 486.987 835.757 486.969L836.2 488.926C836.052 488.982 835.846 489.037 835.581 489.092C835.316 489.154 834.981 489.185 834.575 489.185C833.959 489.185 833.356 489.052 832.765 488.788C832.18 488.523 831.694 488.12 831.306 487.578C830.925 487.036 830.734 486.353 830.734 485.528V471.42ZM839.219 489V474.818H841.398V489H839.219ZM840.327 472.455C839.902 472.455 839.536 472.31 839.228 472.021C838.927 471.731 838.776 471.384 838.776 470.977C838.776 470.571 838.927 470.223 839.228 469.934C839.536 469.645 839.902 469.5 840.327 469.5C840.752 469.5 841.115 469.645 841.416 469.934C841.724 470.223 841.878 470.571 841.878 470.977C841.878 471.384 841.724 471.731 841.416 472.021C841.115 472.31 840.752 472.455 840.327 472.455ZM851.15 489.295C849.87 489.295 848.747 488.991 847.78 488.381C846.82 487.772 846.069 486.92 845.527 485.824C844.992 484.728 844.724 483.448 844.724 481.983C844.724 480.506 844.992 479.216 845.527 478.114C846.069 477.013 846.82 476.157 847.78 475.548C848.747 474.938 849.87 474.634 851.15 474.634C852.431 474.634 853.551 474.938 854.511 475.548C855.477 476.157 856.228 477.013 856.764 478.114C857.306 479.216 857.576 480.506 857.576 481.983C857.576 483.448 857.306 484.728 856.764 485.824C856.228 486.92 855.477 487.772 854.511 488.381C853.551 488.991 852.431 489.295 851.15 489.295ZM851.15 487.338C852.123 487.338 852.923 487.089 853.551 486.59C854.179 486.092 854.643 485.436 854.945 484.624C855.247 483.811 855.397 482.931 855.397 481.983C855.397 481.035 855.247 480.152 854.945 479.333C854.643 478.514 854.179 477.853 853.551 477.348C852.923 476.843 852.123 476.591 851.15 476.591C850.178 476.591 849.377 476.843 848.75 477.348C848.122 477.853 847.657 478.514 847.355 479.333C847.054 480.152 846.903 481.035 846.903 481.983C846.903 482.931 847.054 483.811 847.355 484.624C847.657 485.436 848.122 486.092 848.75 486.59C849.377 487.089 850.178 487.338 851.15 487.338ZM863.081 480.469V489H860.903V474.818H863.008V477.034H863.192C863.525 476.314 864.029 475.735 864.706 475.298C865.384 474.855 866.258 474.634 867.329 474.634C868.289 474.634 869.129 474.83 869.849 475.224C870.569 475.612 871.13 476.203 871.53 476.997C871.93 477.785 872.13 478.782 872.13 479.989V489H869.951V480.136C869.951 479.022 869.662 478.154 869.083 477.533C868.504 476.905 867.71 476.591 866.701 476.591C866.005 476.591 865.384 476.742 864.836 477.043C864.294 477.345 863.866 477.785 863.552 478.364C863.238 478.942 863.081 479.644 863.081 480.469Z" fill="#8899BB"/>
<path d="M1058.7 592.438V599H1057.02V588.091H1058.64V589.795H1058.78C1059.04 589.241 1059.43 588.796 1059.95 588.46C1060.47 588.119 1061.14 587.949 1061.97 587.949C1062.7 587.949 1063.35 588.1 1063.9 588.403C1064.46 588.702 1064.89 589.156 1065.2 589.767C1065.5 590.373 1065.66 591.14 1065.66 592.068V599H1063.98V592.182C1063.98 591.325 1063.76 590.657 1063.31 590.179C1062.87 589.696 1062.26 589.455 1061.48 589.455C1060.95 589.455 1060.47 589.571 1060.05 589.803C1059.63 590.035 1059.3 590.373 1059.06 590.818C1058.82 591.263 1058.7 591.803 1058.7 592.438ZM1073.15 599.227C1072.17 599.227 1071.3 598.993 1070.56 598.524C1069.82 598.055 1069.24 597.4 1068.83 596.557C1068.42 595.714 1068.21 594.729 1068.21 593.602C1068.21 592.466 1068.42 591.474 1068.83 590.626C1069.24 589.779 1069.82 589.121 1070.56 588.652C1071.3 588.183 1072.17 587.949 1073.15 587.949C1074.14 587.949 1075 588.183 1075.74 588.652C1076.48 589.121 1077.06 589.779 1077.47 590.626C1077.89 591.474 1078.1 592.466 1078.1 593.602C1078.1 594.729 1077.89 595.714 1077.47 596.557C1077.06 597.4 1076.48 598.055 1075.74 598.524C1075 598.993 1074.14 599.227 1073.15 599.227ZM1073.15 597.722C1073.9 597.722 1074.52 597.53 1075 597.146C1075.48 596.763 1075.84 596.259 1076.07 595.634C1076.3 595.009 1076.42 594.331 1076.42 593.602C1076.42 592.873 1076.3 592.194 1076.07 591.564C1075.84 590.934 1075.48 590.425 1075 590.037C1074.52 589.649 1073.9 589.455 1073.15 589.455C1072.41 589.455 1071.79 589.649 1071.31 590.037C1070.82 590.425 1070.47 590.934 1070.23 591.564C1070 592.194 1069.89 592.873 1069.89 593.602C1069.89 594.331 1070 595.009 1070.23 595.634C1070.47 596.259 1070.82 596.763 1071.31 597.146C1071.79 597.53 1072.41 597.722 1073.15 597.722ZM1085.09 599.227C1084.1 599.227 1083.24 598.993 1082.49 598.524C1081.76 598.055 1081.18 597.4 1080.76 596.557C1080.35 595.714 1080.14 594.729 1080.14 593.602C1080.14 592.466 1080.35 591.474 1080.76 590.626C1081.18 589.779 1081.76 589.121 1082.49 588.652C1083.24 588.183 1084.1 587.949 1085.09 587.949C1086.07 587.949 1086.93 588.183 1087.67 588.652C1088.42 589.121 1088.99 589.779 1089.41 590.626C1089.82 591.474 1090.03 592.466 1090.03 593.602C1090.03 594.729 1089.82 595.714 1089.41 596.557C1088.99 597.4 1088.42 598.055 1087.67 598.524C1086.93 598.993 1086.07 599.227 1085.09 599.227ZM1085.09 597.722C1085.84 597.722 1086.45 597.53 1086.93 597.146C1087.42 596.763 1087.77 596.259 1088.01 595.634C1088.24 595.009 1088.35 594.331 1088.35 593.602C1088.35 592.873 1088.24 592.194 1088.01 591.564C1087.77 590.934 1087.42 590.425 1086.93 590.037C1086.45 589.649 1085.84 589.455 1085.09 589.455C1084.34 589.455 1083.72 589.649 1083.24 590.037C1082.76 590.425 1082.4 590.934 1082.17 591.564C1081.94 592.194 1081.82 592.873 1081.82 593.602C1081.82 594.331 1081.94 595.009 1082.17 595.634C1082.4 596.259 1082.76 596.763 1083.24 597.146C1083.72 597.53 1084.34 597.722 1085.09 597.722ZM1096.99 603.318C1096.18 603.318 1095.49 603.214 1094.9 603.006C1094.32 602.802 1093.84 602.532 1093.45 602.196C1093.06 601.865 1092.76 601.509 1092.53 601.131L1093.87 600.193C1094.02 600.392 1094.21 600.619 1094.44 600.875C1094.67 601.135 1094.99 601.36 1095.39 601.55C1095.8 601.744 1096.33 601.841 1096.99 601.841C1097.87 601.841 1098.6 601.628 1099.17 601.202C1099.75 600.776 1100.03 600.108 1100.03 599.199V596.983H1099.89C1099.77 597.182 1099.59 597.428 1099.36 597.722C1099.14 598.01 1098.82 598.268 1098.4 598.496C1097.98 598.718 1097.42 598.83 1096.71 598.83C1095.83 598.83 1095.04 598.621 1094.34 598.205C1093.64 597.788 1093.09 597.182 1092.68 596.386C1092.28 595.591 1092.08 594.625 1092.08 593.489C1092.08 592.371 1092.27 591.398 1092.67 590.57C1093.06 589.736 1093.61 589.092 1094.31 588.638C1095.01 588.179 1095.82 587.949 1096.74 587.949C1097.45 587.949 1098.01 588.067 1098.43 588.304C1098.85 588.536 1099.17 588.801 1099.39 589.099C1099.62 589.393 1099.8 589.634 1099.92 589.824H1100.09V588.091H1101.71V599.312C1101.71 600.25 1101.5 601.012 1101.07 601.599C1100.65 602.191 1100.08 602.625 1099.36 602.899C1098.65 603.179 1097.86 603.318 1096.99 603.318ZM1096.94 597.324C1097.61 597.324 1098.18 597.17 1098.64 596.862C1099.1 596.554 1099.46 596.112 1099.7 595.534C1099.94 594.956 1100.06 594.265 1100.06 593.46C1100.06 592.674 1099.94 591.981 1099.71 591.379C1099.47 590.778 1099.12 590.307 1098.65 589.966C1098.19 589.625 1097.62 589.455 1096.94 589.455C1096.23 589.455 1095.63 589.634 1095.16 589.994C1094.69 590.354 1094.34 590.837 1094.1 591.443C1093.87 592.049 1093.75 592.722 1093.75 593.46C1093.75 594.218 1093.87 594.888 1094.11 595.47C1094.35 596.048 1094.71 596.502 1095.17 596.834C1095.65 597.161 1096.23 597.324 1096.94 597.324ZM1106.45 584.455V599H1104.78V584.455H1106.45ZM1114.1 599.227C1113.05 599.227 1112.14 598.995 1111.38 598.531C1110.62 598.062 1110.03 597.409 1109.62 596.571C1109.21 595.728 1109.01 594.748 1109.01 593.631C1109.01 592.513 1109.21 591.528 1109.62 590.676C1110.03 589.819 1110.61 589.152 1111.34 588.673C1112.08 588.19 1112.94 587.949 1113.93 587.949C1114.49 587.949 1115.06 588.044 1115.61 588.233C1116.16 588.422 1116.67 588.73 1117.12 589.156C1117.58 589.578 1117.94 590.136 1118.21 590.832C1118.48 591.528 1118.61 592.385 1118.61 593.403V594.114H1110.2V592.665H1116.91C1116.91 592.049 1116.79 591.5 1116.54 591.017C1116.3 590.534 1115.95 590.153 1115.5 589.874C1115.06 589.594 1114.53 589.455 1113.93 589.455C1113.26 589.455 1112.68 589.62 1112.19 589.952C1111.71 590.278 1111.34 590.705 1111.08 591.23C1110.82 591.756 1110.69 592.319 1110.69 592.92V593.886C1110.69 594.71 1110.83 595.409 1111.11 595.982C1111.4 596.55 1111.8 596.983 1112.31 597.281C1112.82 597.575 1113.42 597.722 1114.1 597.722C1114.54 597.722 1114.93 597.66 1115.29 597.537C1115.65 597.409 1115.96 597.22 1116.22 596.969C1116.48 596.713 1116.68 596.396 1116.82 596.017L1118.44 596.472C1118.27 597.021 1117.99 597.504 1117.58 597.92C1117.18 598.332 1116.68 598.654 1116.09 598.886C1115.5 599.114 1114.83 599.227 1114.1 599.227ZM1122.38 599.114C1122.03 599.114 1121.73 598.988 1121.48 598.737C1121.23 598.486 1121.11 598.186 1121.11 597.835C1121.11 597.485 1121.23 597.184 1121.48 596.933C1121.73 596.682 1122.03 596.557 1122.38 596.557C1122.73 596.557 1123.04 596.682 1123.29 596.933C1123.54 597.184 1123.66 597.485 1123.66 597.835C1123.66 598.067 1123.6 598.28 1123.49 598.474C1123.37 598.669 1123.22 598.825 1123.02 598.943C1122.83 599.057 1122.62 599.114 1122.38 599.114ZM1130.79 599.227C1129.88 599.227 1129.08 598.998 1128.38 598.538C1127.69 598.074 1127.14 597.421 1126.75 596.578C1126.36 595.731 1126.16 594.729 1126.16 593.574C1126.16 592.428 1126.36 591.434 1126.75 590.591C1127.14 589.748 1127.69 589.097 1128.39 588.638C1129.09 588.179 1129.9 587.949 1130.82 587.949C1131.53 587.949 1132.09 588.067 1132.5 588.304C1132.92 588.536 1133.24 588.801 1133.45 589.099C1133.68 589.393 1133.85 589.634 1133.97 589.824H1134.11V584.455H1135.79V599H1134.17V597.324H1133.97C1133.85 597.523 1133.67 597.774 1133.45 598.077C1133.22 598.375 1132.89 598.643 1132.47 598.879C1132.05 599.111 1131.49 599.227 1130.79 599.227ZM1131.02 597.722C1131.69 597.722 1132.26 597.546 1132.72 597.196C1133.19 596.841 1133.54 596.351 1133.78 595.726C1134.02 595.096 1134.14 594.369 1134.14 593.545C1134.14 592.731 1134.02 592.018 1133.79 591.408C1133.55 590.792 1133.2 590.314 1132.74 589.973C1132.27 589.627 1131.7 589.455 1131.02 589.455C1130.31 589.455 1129.72 589.637 1129.24 590.001C1128.77 590.361 1128.42 590.851 1128.18 591.472C1127.95 592.087 1127.84 592.778 1127.84 593.545C1127.84 594.322 1127.95 595.027 1128.19 595.662C1128.43 596.292 1128.79 596.794 1129.26 597.168C1129.73 597.537 1130.32 597.722 1131.02 597.722ZM1143.67 599.227C1142.62 599.227 1141.71 598.995 1140.95 598.531C1140.19 598.062 1139.6 597.409 1139.19 596.571C1138.78 595.728 1138.58 594.748 1138.58 593.631C1138.58 592.513 1138.78 591.528 1139.19 590.676C1139.6 589.819 1140.18 589.152 1140.91 588.673C1141.65 588.19 1142.51 587.949 1143.5 587.949C1144.06 587.949 1144.63 588.044 1145.18 588.233C1145.73 588.422 1146.24 588.73 1146.69 589.156C1147.15 589.578 1147.51 590.136 1147.78 590.832C1148.05 591.528 1148.18 592.385 1148.18 593.403V594.114H1139.77V592.665H1146.48C1146.48 592.049 1146.36 591.5 1146.11 591.017C1145.87 590.534 1145.52 590.153 1145.07 589.874C1144.63 589.594 1144.1 589.455 1143.5 589.455C1142.83 589.455 1142.25 589.62 1141.76 589.952C1141.28 590.278 1140.91 590.705 1140.65 591.23C1140.39 591.756 1140.26 592.319 1140.26 592.92V593.886C1140.26 594.71 1140.4 595.409 1140.68 595.982C1140.97 596.55 1141.37 596.983 1141.88 597.281C1142.4 597.575 1142.99 597.722 1143.67 597.722C1144.11 597.722 1144.5 597.66 1144.86 597.537C1145.22 597.409 1145.53 597.22 1145.79 596.969C1146.05 596.713 1146.25 596.396 1146.39 596.017L1148.01 596.472C1147.84 597.021 1147.56 597.504 1147.15 597.92C1146.75 598.332 1146.25 598.654 1145.66 598.886C1145.07 599.114 1144.41 599.227 1143.67 599.227ZM1159.32 588.091L1155.29 599H1153.58L1149.55 588.091H1151.37L1154.38 596.784H1154.49L1157.5 588.091H1159.32Z" fill="#6586C8"/>
<g clip-path="url(#clip1_79_256)">
<path d="M542.897 241.75L554.508 221.528L605.306 310H582.084L570.473 289.778L558.862 310H547.251L541.445 299.889L558.862 269.556L542.897 241.75Z" fill="url(#paint1_linear_79_256)"/>
<path d="M551.606 181.083L574.828 181.083L524.03 269.556L512.418 249.334L524.03 229.111L500.807 229.111L495.002 219L500.807 208.889L535.641 208.889L551.606 181.083Z" fill="url(#paint2_linear_79_256)"/>
<path d="M608.209 158.333L619.82 178.556L518.223 178.556L529.834 158.333L553.056 158.333L541.445 138.111L547.251 128L558.862 128L576.279 158.333L608.209 158.333Z" fill="url(#paint3_linear_79_256)"/>
<path d="M656.103 196.25L644.492 216.472L593.694 128L616.916 128L628.527 148.222L640.138 128H651.749L657.555 138.111L640.138 168.444L656.103 196.25Z" fill="url(#paint4_linear_79_256)"/>
<path d="M647.394 256.917L624.172 256.917L674.97 168.444L686.582 188.666L674.97 208.889L698.193 208.889L703.998 219L698.193 229.111L663.359 229.111L647.394 256.917Z" fill="url(#paint5_linear_79_256)"/>
<path d="M590.791 279.667L579.18 259.444L680.777 259.444L669.166 279.667L645.944 279.667L657.555 299.889L651.749 310L640.138 310L622.721 279.667L590.791 279.667Z" fill="url(#paint6_linear_79_256)"/>
</g>
</g>
<defs>
<linearGradient id="paint0_linear_79_256" x1="0" y1="0" x2="518.569" y2="987.751" gradientUnits="userSpaceOnUse">
<stop stop-color="#1B1D22"/>
<stop offset="1" stop-color="#0F192C"/>
</linearGradient>
<linearGradient id="paint1_linear_79_256" x1="541.445" y1="219" x2="582.421" y2="289.582" gradientUnits="userSpaceOnUse">
<stop stop-color="#3E5993"/>
<stop offset="0.25" stop-color="#4564A5"/>
<stop offset="1" stop-color="#4D6FB7"/>
</linearGradient>
<linearGradient id="paint2_linear_79_256" x1="570.474" y1="168.445" x2="529.498" y2="239.027" gradientUnits="userSpaceOnUse">
<stop stop-color="#6D9BBC"/>
<stop offset="0.25" stop-color="#72A9CF"/>
<stop offset="1" stop-color="#77B6E1"/>
</linearGradient>
<linearGradient id="paint3_linear_79_256" x1="628.529" y1="168.445" x2="547.251" y2="168.445" gradientUnits="userSpaceOnUse">
<stop stop-color="#3E5993"/>
<stop offset="0.25" stop-color="#4564A5"/>
<stop offset="1" stop-color="#4D6FB7"/>
</linearGradient>
<linearGradient id="paint4_linear_79_256" x1="657.555" y1="219" x2="616.579" y2="148.418" gradientUnits="userSpaceOnUse">
<stop stop-color="#6D9BBC"/>
<stop offset="0.25" stop-color="#72A9CF"/>
<stop offset="1" stop-color="#77B6E1"/>
</linearGradient>
<linearGradient id="paint5_linear_79_256" x1="628.526" y1="269.555" x2="669.502" y2="198.973" gradientUnits="userSpaceOnUse">
<stop stop-color="#3E5993"/>
<stop offset="0.25" stop-color="#4564A5"/>
<stop offset="1" stop-color="#4D6FB7"/>
</linearGradient>
<linearGradient id="paint6_linear_79_256" x1="570.471" y1="269.555" x2="651.749" y2="269.555" gradientUnits="userSpaceOnUse">
<stop stop-color="#6D9BBC"/>
<stop offset="0.25" stop-color="#72A9CF"/>
<stop offset="1" stop-color="#77B6E1"/>
</linearGradient>
<clipPath id="clip0_79_256">
<rect width="1200" height="630" fill="white"/>
</clipPath>
<clipPath id="clip1_79_256">
<rect width="209" height="182" fill="white" transform="translate(495 128)"/>
</clipPath>
</defs>
</svg>
